<svg xmlns="http://www.w3.org/2000/svg" xmlns:xlink="http://www.w3.org/1999/xlink" version="1.1" width="612" height="612" style="" xml:space="preserve"><rect id="backgroundrect" width="100%" height="100%" x="0" y="0" fill="none" stroke="none"/>

<g class="currentLayer" style=""><title>Layer 1</title><g id="svg_1" class="selected" fill="#b6b6b6" fill-opacity="1">
	<g id="svg_2" fill="#b6b6b6" fill-opacity="1">
		<path d="M604.267,194.727c4.257,0,7.733-3.644,7.733-7.733v-40.169c0-4.256-3.283-7.733-7.733-7.733H7.733    c-4.256,0-7.733,3.644-7.733,7.733v40.169c0,4.256,3.283,7.733,7.733,7.733H604.267z" id="svg_3" fill="#b6b6b6" fill-opacity="1"/>
		<path d="M0,326.084c0,4.256,3.283,7.733,7.733,7.733h596.533c4.256,0,7.733-3.645,7.733-7.733v-40.169    c0-4.284-3.283-7.733-7.733-7.733H7.733c-4.256,0-7.733,3.645-7.733,7.733V326.084z" id="svg_4" fill="#b6b6b6" fill-opacity="1"/>
		<path d="M0,465.175c0,4.256,3.283,7.733,7.733,7.733h596.533c4.256,0,7.733-3.645,7.733-7.733v-40.169    c0-4.256-3.283-7.732-7.733-7.732H7.733c-4.256,0-7.733,3.644-7.733,7.732V465.175z" id="svg_5" fill="#b6b6b6" fill-opacity="1"/>
	</g>
</g></g></svg>